<svg width="87" height="48" viewBox="0 0 87 48" fill="none" xmlns="http://www.w3.org/2000/svg">
<path d="M61.4936 30.9536C60.2901 31.2294 57.1227 31.3881 57.1227 31.3881L56.7215 32.6417C56.7215 32.6417 58.3011 32.508 59.4544 32.625C59.4544 32.625 59.8305 32.5832 59.8722 33.0513C59.889 33.4858 59.8388 33.9539 59.8388 33.9539C59.8388 33.9539 59.8137 34.238 59.4126 34.3049C58.978 34.3801 56.0028 34.4887 56.0028 34.4887L55.5181 36.1184C55.5181 36.1184 55.3426 36.4945 55.7437 36.3858C56.1198 36.2856 59.2371 35.7005 59.6466 35.7841C60.0812 35.8928 60.5659 36.4694 60.4238 37.0043C60.2567 37.6562 57.1478 39.6452 55.2506 39.5031C55.2506 39.5031 54.2561 39.57 53.412 38.2245C52.6264 36.9458 53.7129 34.5138 53.7129 34.5138C53.7129 34.5138 53.2198 33.3772 53.5792 33.0011C53.5792 33.0011 53.7965 32.8089 54.4149 32.7588L55.1754 31.1792C55.1754 31.1792 54.3063 31.2377 53.7881 30.6026C53.3034 29.9925 53.2699 29.7167 53.6377 29.5495C54.0305 29.3573 57.6492 28.6971 60.1397 28.7807C60.1397 28.7807 61.0089 28.6971 61.7527 30.2014C61.7443 30.2014 62.112 30.8115 61.4936 30.9536ZM52.125 37.021C51.8074 37.7732 50.9633 38.5755 49.9186 38.074C48.8823 37.5726 47.2359 34.2046 47.2359 34.2046C47.2359 34.2046 46.6091 32.951 46.4921 32.976C46.4921 32.976 46.3584 32.7337 46.2748 34.1043C46.1913 35.4749 46.2916 38.1409 45.7483 38.5588C45.2302 38.9766 44.6034 38.8095 44.2774 38.3164C43.9849 37.8317 43.8596 36.6783 44.0184 34.6559C44.2106 32.6334 44.6786 30.4772 45.2803 29.8003C45.882 29.1317 46.3668 29.6164 46.5506 29.7919C46.5506 29.7919 47.3529 30.519 48.6818 32.6585L48.9158 33.0513C48.9158 33.0513 50.1192 35.0737 50.2446 35.0654C50.2446 35.0654 50.3449 35.1573 50.4284 35.0905C50.5538 35.057 50.5037 34.4051 50.5037 34.4051C50.5037 34.4051 50.2529 32.2072 49.1581 28.4798C49.1581 28.4798 48.991 28.0118 49.108 27.5772C49.2166 27.1343 49.6596 27.3432 49.6596 27.3432C49.6596 27.3432 51.3645 28.1956 52.1835 30.9703C52.9942 33.77 52.4426 36.2688 52.125 37.021ZM43.7509 29.8922C43.6088 30.1763 43.5253 30.5858 42.8065 30.6945C42.8065 30.6945 35.9284 31.1625 35.6025 31.6472C35.6025 31.6472 35.3601 31.9314 35.7362 32.0149C36.1123 32.0902 37.6668 32.2991 38.4189 32.3409C39.2212 32.3492 41.929 32.3743 42.8985 33.5861C42.8985 33.5861 43.4751 34.1628 43.4501 35.4665C43.425 36.8037 43.191 37.2717 42.6728 37.7564C42.1296 38.2077 37.4662 40.2971 34.4576 37.0879C34.4576 37.0879 33.0702 35.5417 34.9339 34.3717C34.9339 34.3717 36.2795 33.5611 39.6976 34.5138C39.6976 34.5138 40.7339 34.8899 40.6838 35.266C40.6253 35.6671 39.8313 36.0933 38.678 36.0683C37.5581 36.0348 36.7391 35.5 36.8979 35.5835C37.0483 35.642 35.6944 34.9317 35.2766 35.4164C34.8587 35.8593 34.959 36.1351 35.3685 36.4109C36.4132 37.0043 40.4498 36.7954 41.6532 35.4582C41.6532 35.4582 42.1296 34.9149 41.4025 34.472C40.6754 34.0541 38.5944 33.8034 37.7838 33.7616C37.0065 33.7198 34.1149 33.77 33.697 33.0011C33.697 33.0011 33.2792 32.483 33.7388 31.0121C34.2235 29.4743 37.5916 28.8809 39.0457 28.7472C39.0457 28.7472 43.0489 28.6051 43.7844 29.4242C43.776 29.4242 43.8763 29.6164 43.7509 29.8922ZM32.3849 38.9098C31.9002 39.2691 30.8722 39.1103 30.5797 38.7092C30.2872 38.3498 30.1869 36.9207 30.2454 34.6809C30.3039 32.4161 30.3541 29.608 30.8388 29.1651C31.357 28.7138 31.6746 29.1066 31.8751 29.4158C32.0924 29.7167 32.3515 30.051 32.41 30.7613C32.4601 31.4717 32.6273 35.1991 32.6273 35.1991C32.6273 35.1991 32.8446 38.5588 32.3849 38.9098ZM33.4296 26.8919C32.0172 27.3599 31.0478 27.2011 30.2287 26.8501C29.8694 27.4769 29.6604 27.6691 29.3846 27.7109C28.9835 27.7527 28.6241 27.1092 28.5573 26.9003C28.4904 26.7415 28.2982 26.474 28.5322 25.8389C27.7299 25.1201 27.6714 24.1507 27.8051 23.4988C28.0057 22.7466 29.3596 19.8884 33.4797 19.5541C33.4797 19.5541 35.4939 19.4037 35.8365 20.4818H35.895C35.895 20.4818 37.8506 20.4902 37.8088 22.2285C37.7838 23.9752 35.6359 26.1481 33.4296 26.8919ZM29.5852 23.0224C29.1673 23.691 29.1506 24.0922 29.3429 24.368C29.8192 23.6409 30.6884 22.4959 31.9671 21.6268C30.9809 21.7103 30.1535 22.1366 29.5852 23.0224ZM35.2766 21.9026C33.9812 22.0948 31.9754 23.8331 31.0227 25.2539C32.4852 25.5213 35.0676 25.421 36.2126 23.0893C36.2042 23.0893 36.7558 21.6435 35.2766 21.9026ZM70.4443 35.3662C69.6671 36.7201 67.4858 39.5449 64.5774 38.8847C63.6163 41.2164 62.814 43.5648 62.3544 47.0916C62.3544 47.0916 62.2541 47.7769 61.6858 47.5345C61.1258 47.334 60.1898 46.3979 60.006 45.1026C59.8054 43.3977 60.5659 40.5144 62.112 37.2132C61.6607 36.4778 61.3515 35.4247 61.6189 33.9288C61.6189 33.9288 62.0117 31.1541 64.7947 28.6469C64.7947 28.6469 65.129 28.3544 65.3212 28.4464C65.5385 28.5383 65.4382 29.4409 65.2627 29.8755C65.0872 30.31 63.842 32.4662 63.842 32.4662C63.842 32.4662 63.0648 33.9204 63.282 35.0654C64.7446 32.8173 68.0708 28.2792 70.1351 29.7083C70.8287 30.2014 71.1463 31.2795 71.1463 32.4412C71.138 33.4691 70.8956 34.5556 70.4443 35.3662ZM69.8426 31.806C69.8426 31.806 69.7256 30.9118 68.8564 31.8979C68.1042 32.7253 66.7503 34.2881 65.6555 36.4026C66.8005 36.2772 67.9037 35.6504 68.238 35.3328C68.7812 34.8481 70.0431 33.5443 69.8426 31.806ZM29.2676 32.9426C29.1088 34.9651 28.3316 38.3665 22.8241 40.0464C19.1887 41.1412 15.7538 40.6147 13.8818 40.1383C13.84 40.8821 13.7564 41.1997 13.6394 41.325C13.4806 41.4838 12.2939 42.1691 11.642 41.1997C11.3495 40.74 11.199 39.9043 11.1155 39.1605C6.90337 37.2216 4.96447 34.4302 4.88925 34.3049C4.79732 34.2129 3.83623 33.21 4.79732 31.9815C5.69992 30.87 8.65006 29.7585 11.3077 29.3072C11.3996 27.034 11.6671 25.3207 11.9846 24.5351C12.3691 23.6242 12.8538 24.4432 13.2717 25.0616C13.6227 25.5213 13.8316 27.502 13.8483 29.0815C15.5867 28.9979 16.6146 29.1233 18.5535 29.4743C21.0774 29.934 22.7656 31.221 22.6152 32.6835C22.5065 34.121 21.1861 34.7144 20.6846 34.7562C20.1581 34.7979 19.3391 34.4219 19.3391 34.4219C18.7792 34.1544 19.2973 33.9204 19.9743 33.6279C20.7097 33.2686 20.5426 32.9008 20.5426 32.9008C20.2668 32.0985 16.9907 31.5386 13.7313 31.5386C13.7146 33.3354 13.8065 36.319 13.8483 38.0573C16.1299 38.4919 17.8348 38.4083 17.8348 38.4083C17.8348 38.4083 26.1587 38.1743 26.4094 32.859C26.6685 27.5354 18.1106 22.4291 11.7841 20.8077C5.46591 19.153 1.88896 20.3063 1.57974 20.4651C1.24545 20.6322 1.55467 20.6824 1.55467 20.6824C1.55467 20.6824 1.89732 20.7325 2.49069 20.9331C3.11749 21.1337 2.63277 21.4596 2.63277 21.4596C1.55467 21.8023 0.342855 21.585 0.108849 21.0919C-0.125157 20.5988 0.267639 20.1559 0.718936 19.5207C1.17023 18.8521 1.66332 18.8772 1.66332 18.8772C9.47744 16.1694 18.9965 21.0668 18.9965 21.0668C27.9137 25.5881 29.4348 30.8867 29.2676 32.9426ZM5.6832 32.6668C4.79732 33.1014 5.40741 33.7282 5.40741 33.7282C7.07052 35.5167 9.11807 36.6366 11.0653 37.3302C11.291 34.2464 11.2576 33.1599 11.2826 31.6054C8.24055 31.8144 6.48551 32.2991 5.6832 32.6668Z" fill="#01147C"/>
<path d="M86.9917 32.0316V33.1348C86.9917 33.3772 86.7995 33.5694 86.5572 33.5694H81.3004C81.3004 33.8452 81.3087 34.0875 81.3087 34.3132C81.3087 35.9429 81.2419 37.2717 81.0831 38.7676C81.058 38.9933 80.8742 39.1604 80.6569 39.1604H79.5203C79.4033 39.1604 79.2946 39.1103 79.2194 39.0267C79.1442 38.9432 79.1024 38.8261 79.1191 38.7091C79.2779 37.2215 79.3531 35.9094 79.3531 34.3132C79.3531 34.0792 79.3531 33.8368 79.3448 33.5694H74.1465C73.9041 33.5694 73.7119 33.3772 73.7119 33.1348V32.0316C73.7119 31.7893 73.9041 31.597 74.1465 31.597H79.2696C79.1609 29.8002 78.9436 28.0702 78.5926 26.3152C78.5759 26.2066 78.601 26.0979 78.6678 26.0143C78.7347 25.9308 78.835 25.8806 78.9436 25.8806H80.1721C80.3644 25.8806 80.5232 26.0143 80.5649 26.2066C80.9076 28.0201 81.1249 29.7835 81.2335 31.597H86.5572C86.7912 31.597 86.9917 31.7976 86.9917 32.0316Z" fill="#01147C"/>
<path d="M79.8378 23.2815C77.1216 16.604 72.5335 10.9126 66.5663 6.8175C60.4571 2.63047 53.2948 0.415771 45.8568 0.415771C33.5548 0.415771 22.1387 6.52499 15.3274 16.7627C15.2522 16.8714 15.2355 17.0135 15.2773 17.1388C15.3191 17.2725 15.4193 17.3645 15.5447 17.4063L16.4974 17.7322C16.5559 17.7489 16.6144 17.7573 16.6646 17.7573C16.8401 17.7573 17.0072 17.6653 17.1075 17.5233C20.2332 12.9267 24.462 9.10741 29.3427 6.46649C34.3822 3.742 40.0902 2.29617 45.8484 2.29617C52.8101 2.29617 59.5211 4.35208 65.2709 8.22989C70.8787 12.0158 75.2329 17.306 77.8655 23.5155C77.9407 23.6993 78.1245 23.8247 78.3251 23.8247H79.4617C79.5954 23.8247 79.7208 23.7578 79.7876 23.6492C79.8712 23.5406 79.8879 23.4068 79.8378 23.2815ZM16.6646 17.4731H16.6813C16.6813 17.4731 16.6729 17.4731 16.6646 17.4731ZM78.0911 23.6743C78.1162 23.691 78.1412 23.7077 78.1663 23.7161C78.1412 23.6993 78.1162 23.691 78.0911 23.6743Z" fill="url(#paint0_radial_205_440)"/>
<defs>
<radialGradient id="paint0_radial_205_440" cx="0" cy="0" r="1" gradientUnits="userSpaceOnUse" gradientTransform="translate(78.7701 23.7826) scale(63.5262 63.5262)">
<stop offset="0.007" stop-color="#021192"/>
<stop offset="0.03" stop-color="#021096"/>
<stop offset="0.057" stop-color="#010CB4"/>
<stop offset="0.084" stop-color="#0008CE"/>
<stop offset="0.111" stop-color="#0006D7"/>
<stop offset="0.138" stop-color="#0004E1"/>
<stop offset="0.165" stop-color="#0001FA"/>
<stop offset="0.191" stop-color="#0000FE"/>
<stop offset="0.216" stop-color="#0F1EFF"/>
<stop offset="1" stop-color="#00FFFF" stop-opacity="0"/>
</radialGradient>
</defs>
</svg>
