<svg width="76" height="58" viewBox="0 0 76 58" fill="none" xmlns="http://www.w3.org/2000/svg">
<path d="M21.5357 2.67635L21.5498 2.66798L21.5635 2.65916C22.972 1.75628 24.18 1.36719 25.2088 1.36719C26.2108 1.36719 27.1452 1.73563 28.0397 2.55477C28.9589 3.39657 29.1662 4.07321 29.0834 4.6247C28.9901 5.24538 28.4851 6.06277 27.2016 7.04731L27.1931 7.05376L27.1849 7.06039C24.6906 9.05903 22.3691 11.5814 20.2154 14.6141C18.0106 17.5684 16.5262 21.0502 15.7469 25.0373C15.546 25.9466 15.6976 26.8836 16.4938 27.5261C17.1838 28.0828 18.1739 28.2498 19.2142 28.2498C22.3598 28.2498 25.2792 29.5862 27.9948 32.4054L28.0126 32.4238L28.0313 32.4414C30.8523 35.0844 32.2392 38.2437 32.2392 41.9738C32.2392 45.851 30.7774 49.2438 27.7866 52.1933C24.9712 54.9699 21.4594 56.3672 17.1783 56.3672C13.222 56.3672 9.77288 54.9852 6.78744 52.1847C3.75669 49.1928 1.99199 45.8892 1.42676 42.2659C0.25498 34.7543 1.4939 27.3815 5.17441 20.1204C9.0108 12.7004 14.4607 6.89193 21.5357 2.67635ZM64.2965 2.67635L64.3105 2.66798L64.3243 2.65916C65.7328 1.75628 66.9408 1.36719 67.9695 1.36719C68.9716 1.36719 69.9059 1.73563 70.8004 2.55477C71.7196 3.39657 71.927 4.07321 71.8441 4.6247C71.7509 5.24538 71.2458 6.06277 69.9623 7.04731L69.9539 7.05376L69.9456 7.06039C67.4514 9.05904 65.1298 11.5815 62.9762 14.6142C60.7714 17.5684 59.287 21.0502 58.5077 25.0373C58.3144 25.9113 58.4209 26.8378 59.1621 27.4957C59.8204 28.08 60.7741 28.2498 61.7487 28.2498C65.0571 28.2498 68.0497 29.5963 70.7556 32.4054L70.7734 32.4238L70.7921 32.4414C73.6131 35.0844 75 38.2437 75 41.9738C75 45.851 73.5382 49.2438 70.5474 52.1933C67.732 54.9699 64.2202 56.3672 59.939 56.3672C55.9828 56.3672 52.5337 54.9852 49.5482 52.1848C46.5175 49.1928 44.7528 45.8893 44.1875 42.2659C43.0157 34.7543 44.2547 27.3815 47.9352 20.1203C51.7716 12.7004 57.2215 6.89192 64.2965 2.67635Z" fill="white" stroke="#34113F" stroke-width="2"/>
</svg>
