<svg width="160" height="33" viewBox="0 0 160 33" fill="none" xmlns="http://www.w3.org/2000/svg">
<g clip-path="url(#clip0_202_572)">
<path d="M48.0728 24.7381V8.4502H51.1442V21.9459H58.5901V24.7381H48.0728Z" fill="#3A5088"/>
<path d="M65.2215 25.0639C64.0736 25.0639 63.042 24.8312 62.1268 24.3658C61.2115 23.9005 60.4902 23.2257 59.9628 22.3415C59.4354 21.4573 59.1717 20.3947 59.1717 19.1537V18.7814C59.1717 17.5404 59.4354 16.4778 59.9628 15.5936C60.4902 14.7094 61.2115 14.0346 62.1268 13.5692C63.042 13.1039 64.0736 12.8712 65.2215 12.8712C66.3694 12.8712 67.401 13.1039 68.3162 13.5692C69.2314 14.0346 69.9527 14.7094 70.4802 15.5936C71.0076 16.4778 71.2713 17.5404 71.2713 18.7814V19.1537C71.2713 20.3947 71.0076 21.4573 70.4802 22.3415C69.9527 23.2257 69.2314 23.9005 68.3162 24.3658C67.401 24.8312 66.3694 25.0639 65.2215 25.0639ZM65.2215 22.4578C66.1212 22.4578 66.8658 22.1708 67.4553 21.5969C68.0447 21.0074 68.3395 20.1697 68.3395 19.0839V18.8512C68.3395 17.7653 68.0447 16.9354 67.4553 16.3614C66.8813 15.772 66.1367 15.4772 65.2215 15.4772C64.3218 15.4772 63.5772 15.772 62.9877 16.3614C62.3982 16.9354 62.1035 17.7653 62.1035 18.8512V19.0839C62.1035 20.1697 62.3982 21.0074 62.9877 21.5969C63.5772 22.1708 64.3218 22.4578 65.2215 22.4578Z" fill="#3A5088"/>
<path d="M72.372 19.0141V18.6418C72.372 17.4318 72.6124 16.4002 73.0933 15.547C73.5742 14.6784 74.2102 14.0191 75.0013 13.5692C75.808 13.1039 76.6844 12.8712 77.6307 12.8712C78.6855 12.8712 79.4844 13.0573 80.0273 13.4296C80.5703 13.8019 80.9658 14.1897 81.214 14.593H81.6329V13.1969H84.5182V26.7857C84.5182 27.5769 84.2855 28.2051 83.8201 28.6705C83.3547 29.1514 82.7343 29.3918 81.9586 29.3918H74.2335V26.8323H80.9348C81.3692 26.8323 81.5863 26.5996 81.5863 26.1342V23.1326H81.1675C81.0124 23.3808 80.7952 23.6367 80.516 23.9005C80.2368 24.1486 79.8645 24.3581 79.3991 24.5287C78.9337 24.6993 78.3443 24.7847 77.6307 24.7847C76.6844 24.7847 75.808 24.5597 75.0013 24.1099C74.2102 23.6445 73.5742 22.9852 73.0933 22.132C72.6124 21.2634 72.372 20.224 72.372 19.0141ZM78.4684 22.2251C79.3681 22.2251 80.1204 21.9381 80.7254 21.3642C81.3304 20.7902 81.6329 19.9836 81.6329 18.9443V18.7116C81.6329 17.6567 81.3304 16.8501 80.7254 16.2916C80.1359 15.7177 79.3836 15.4307 78.4684 15.4307C77.5686 15.4307 76.8163 15.7177 76.2113 16.2916C75.6063 16.8501 75.3038 17.6567 75.3038 18.7116V18.9443C75.3038 19.9836 75.6063 20.7902 76.2113 21.3642C76.8163 21.9381 77.5686 22.2251 78.4684 22.2251Z" fill="#3A5088"/>
<path d="M92.213 25.0639C91.0651 25.0639 90.0335 24.8312 89.1182 24.3658C88.203 23.9005 87.4817 23.2257 86.9543 22.3415C86.4269 21.4573 86.1631 20.3947 86.1631 19.1537V18.7814C86.1631 17.5404 86.4269 16.4778 86.9543 15.5936C87.4817 14.7094 88.203 14.0346 89.1182 13.5692C90.0335 13.1039 91.0651 12.8712 92.213 12.8712C93.3609 12.8712 94.3924 13.1039 95.3077 13.5692C96.2229 14.0346 96.9442 14.7094 97.4717 15.5936C97.9991 16.4778 98.2628 17.5404 98.2628 18.7814V19.1537C98.2628 20.3947 97.9991 21.4573 97.4717 22.3415C96.9442 23.2257 96.2229 23.9005 95.3077 24.3658C94.3924 24.8312 93.3609 25.0639 92.213 25.0639ZM92.213 22.4578C93.1127 22.4578 93.8573 22.1708 94.4467 21.5969C95.0362 21.0074 95.3309 20.1697 95.3309 19.0839V18.8512C95.3309 17.7653 95.0362 16.9354 94.4467 16.3614C93.8728 15.772 93.1282 15.4772 92.213 15.4772C91.3132 15.4772 90.5687 15.772 89.9792 16.3614C89.3897 16.9354 89.095 17.7653 89.095 18.8512V19.0839C89.095 20.1697 89.3897 21.0074 89.9792 21.5969C90.5687 22.1708 91.3132 22.4578 92.213 22.4578Z" fill="#3A5088"/>
<path d="M99.9219 24.7381V13.1969H102.854V24.7381H99.9219ZM101.388 11.8474C100.86 11.8474 100.411 11.6767 100.038 11.3354C99.6815 10.9942 99.5031 10.5443 99.5031 9.98587C99.5031 9.42743 99.6815 8.97757 100.038 8.6363C100.411 8.29503 100.86 8.12439 101.388 8.12439C101.931 8.12439 102.381 8.29503 102.737 8.6363C103.094 8.97757 103.273 9.42743 103.273 9.98587C103.273 10.5443 103.094 10.9942 102.737 11.3354C102.381 11.6767 101.931 11.8474 101.388 11.8474Z" fill="#3A5088"/>
<path d="M105.056 29.3918V13.1969H107.941V14.593H108.36C108.623 14.1432 109.034 13.7476 109.593 13.4063C110.151 13.0496 110.95 12.8712 111.99 12.8712C112.92 12.8712 113.781 13.1039 114.572 13.5692C115.364 14.0191 116 14.6861 116.48 15.5703C116.961 16.4545 117.202 17.5249 117.202 18.7814V19.1537C117.202 20.4102 116.961 21.4805 116.48 22.3647C116 23.2489 115.364 23.9237 114.572 24.3891C113.781 24.8389 112.92 25.0639 111.99 25.0639C111.292 25.0639 110.702 24.9786 110.221 24.8079C109.756 24.6528 109.376 24.4511 109.081 24.2029C108.802 23.9392 108.577 23.6755 108.406 23.4118H107.987V29.3918H105.056ZM111.105 22.5043C112.021 22.5043 112.773 22.2174 113.362 21.6434C113.967 21.0539 114.27 20.2008 114.27 19.0839V18.8512C114.27 17.7343 113.967 16.8889 113.362 16.3149C112.757 15.7254 112.005 15.4307 111.105 15.4307C110.206 15.4307 109.453 15.7254 108.848 16.3149C108.243 16.8889 107.941 17.7343 107.941 18.8512V19.0839C107.941 20.2008 108.243 21.0539 108.848 21.6434C109.453 22.2174 110.206 22.5043 111.105 22.5043Z" fill="#3A5088"/>
<path d="M123.64 25.0639C122.135 25.0639 120.902 24.7381 119.94 24.0866C118.979 23.4351 118.397 22.5043 118.195 21.2944L120.894 20.5963C121.003 21.1393 121.181 21.5658 121.43 21.8761C121.693 22.1863 122.011 22.4113 122.384 22.5509C122.771 22.675 123.19 22.737 123.64 22.737C124.323 22.737 124.827 22.6207 125.152 22.388C125.478 22.1398 125.641 21.8373 125.641 21.4805C125.641 21.1237 125.486 20.8523 125.176 20.6661C124.865 20.4645 124.369 20.3016 123.687 20.1775L123.035 20.0611C122.228 19.906 121.492 19.6966 120.825 19.4329C120.157 19.1537 119.622 18.7736 119.219 18.2927C118.816 17.8119 118.614 17.1914 118.614 16.4313C118.614 15.2833 119.033 14.4069 119.871 13.8019C120.708 13.1814 121.81 12.8712 123.175 12.8712C124.462 12.8712 125.533 13.1581 126.386 13.7321C127.239 14.3061 127.797 15.0584 128.061 15.9892L125.339 16.8268C125.215 16.2374 124.959 15.8185 124.571 15.5703C124.198 15.3221 123.733 15.198 123.175 15.198C122.616 15.198 122.19 15.2989 121.895 15.5005C121.6 15.6867 121.453 15.9504 121.453 16.2916C121.453 16.6639 121.608 16.9432 121.918 17.1293C122.228 17.2999 122.647 17.4318 123.175 17.5249L123.826 17.6412C124.695 17.7963 125.478 18.0058 126.176 18.2695C126.89 18.5177 127.448 18.8822 127.852 19.3631C128.27 19.8285 128.48 20.4645 128.48 21.2711C128.48 22.4811 128.038 23.4196 127.154 24.0866C126.285 24.7381 125.114 25.0639 123.64 25.0639Z" fill="#3A5088"/>
<path d="M134.4 24.9243C133.5 24.9243 132.709 24.7226 132.026 24.3193C131.359 23.9005 130.84 23.3265 130.467 22.5974C130.095 21.8683 129.909 21.0307 129.909 20.0844V13.1969H132.841V19.8517C132.841 20.7204 133.05 21.3719 133.469 21.8063C133.903 22.2406 134.516 22.4578 135.307 22.4578C136.207 22.4578 136.905 22.1631 137.401 21.5736C137.898 20.9686 138.146 20.1309 138.146 19.0606V13.1969H141.078V24.7381H138.192V23.2257H137.774C137.588 23.6135 137.238 23.9935 136.727 24.3658C136.215 24.7381 135.439 24.9243 134.4 24.9243Z" fill="#3A5088"/>
<path d="M143.293 24.738V13.1968H146.178V14.4533H146.597C146.799 14.0655 147.133 13.732 147.598 13.4528C148.063 13.158 148.676 13.0107 149.436 13.0107C150.258 13.0107 150.918 13.1736 151.414 13.4993C151.91 13.8096 152.29 14.2206 152.554 14.7326H152.973C153.237 14.2362 153.609 13.8251 154.09 13.4993C154.571 13.1736 155.253 13.0107 156.137 13.0107C156.851 13.0107 157.495 13.1658 158.069 13.4761C158.658 13.7708 159.124 14.2284 159.465 14.8489C159.822 15.4539 160 16.2217 160 17.1525V24.738H157.068V17.3619C157.068 16.7259 156.905 16.2528 156.58 15.9425C156.254 15.6168 155.796 15.4539 155.207 15.4539C154.54 15.4539 154.02 15.671 153.648 16.1054C153.291 16.5242 153.113 17.1292 153.113 17.9203V24.738H150.181V17.3619C150.181 16.7259 150.018 16.2528 149.692 15.9425C149.366 15.6168 148.909 15.4539 148.319 15.4539C147.652 15.4539 147.132 15.671 146.76 16.1054C146.403 16.5242 146.225 17.1292 146.225 17.9203V24.738H143.293Z" fill="#3A5088"/>
<path d="M38.7809 16.0127C38.7809 11.8985 37.1465 7.95275 34.2373 5.04356C31.3281 2.13437 27.3824 0.500001 23.2682 0.5C19.154 0.499999 15.2083 2.13437 12.2991 5.04356C9.38989 7.95275 7.75552 11.8985 7.75552 16.0127H12.6033C14.2097 16.0127 15.4625 14.6665 16.0509 13.1717C16.4372 12.1903 17.0234 11.2884 17.7836 10.5281C19.2382 9.07352 21.2111 8.25634 23.2682 8.25634C25.3253 8.25634 27.2982 9.07352 28.7528 10.5281C30.2074 11.9827 31.0245 13.9556 31.0245 16.0127H38.7809Z" fill="url(#paint0_linear_202_572)"/>
<path d="M29.8445 21.9491C30.6241 20.067 31.0254 18.0498 31.0254 16.0127H38.7809C38.7809 24.5801 31.8356 31.5253 23.2682 31.5253C21.9265 31.5253 20.6245 31.355 19.3829 31.0348C20.0854 30.8538 20.7759 30.6233 21.4491 30.3445C23.3312 29.5649 25.0413 28.4223 26.4818 26.9818C27.9223 25.5413 29.065 23.8312 29.8445 21.9491Z" fill="#FBCF8E"/>
<path d="M0 16.0126C-2.91433e-07 18.0498 0.401247 20.067 1.18083 21.9491C1.96042 23.8312 3.10307 25.5413 4.54356 26.9818C5.98404 28.4222 7.69415 29.5649 9.57623 30.3445C11.4583 31.1241 13.4755 31.5253 15.5127 31.5253C17.5498 31.5253 19.567 31.1241 21.4491 30.3445C23.3312 29.5649 25.0413 28.4222 26.4818 26.9818C27.9223 25.5413 29.0649 23.8312 29.8445 21.9491C30.6241 20.067 31.0254 18.0498 31.0254 16.0126H26.1776C24.5712 16.0126 23.3184 17.3588 22.73 18.8535C22.7133 18.8961 22.6961 18.9385 22.6786 18.9809C22.2888 19.9219 21.7175 20.777 20.9972 21.4972C20.277 22.2174 19.4219 22.7888 18.4809 23.1786C17.5399 23.5684 16.5313 23.769 15.5127 23.769C14.4941 23.769 13.4855 23.5684 12.5445 23.1786C11.6034 22.7888 10.7484 22.2174 10.0281 21.4972C9.30787 20.777 8.73655 19.9219 8.34676 18.9809C7.95696 18.0398 7.75634 17.0312 7.75634 16.0126H0Z" fill="url(#paint1_linear_202_572)"/>
<path d="M0.00158691 16.0127C0.00158691 7.44524 6.94683 0.5 15.5142 0.5C16.8556 0.5 18.1572 0.670246 19.3987 0.990323C16.7348 1.67657 14.2774 3.06535 12.2991 5.04357C9.38992 7.95273 7.75557 11.8985 7.75557 16.0127H0.00158691Z" fill="#73E5E2"/>
</g>
<defs>
<linearGradient id="paint0_linear_202_572" x1="38.7809" y1="8.25634" x2="7.75552" y2="8.25634" gradientUnits="userSpaceOnUse">
<stop stop-color="#73E5E2"/>
<stop offset="1" stop-color="#394F87"/>
</linearGradient>
<linearGradient id="paint1_linear_202_572" x1="1.01712e-06" y1="23.769" x2="31.0254" y2="23.769" gradientUnits="userSpaceOnUse">
<stop stop-color="#FBDC8E"/>
<stop offset="1" stop-color="#FB958E"/>
</linearGradient>
<clipPath id="clip0_202_572">
<rect width="160" height="32" fill="white" transform="translate(0 0.5)"/>
</clipPath>
</defs>
</svg>
