<svg width="64" height="64" viewBox="0 0 64 64" fill="none" xmlns="http://www.w3.org/2000/svg">
<g clip-path="url(#clip0_1_1708)">
<mask id="mask0_1_1708" style="mask-type:luminance" maskUnits="userSpaceOnUse" x="0" y="0" width="64" height="64">
<path d="M64 0H0V64H64V0Z" fill="white"/>
</mask>
<g mask="url(#mask0_1_1708)">
<path d="M32.0813 64C31.0719 64 30.2188 63.2691 29.9744 62.2899C29.1953 59.169 27.7038 55.8499 25.5 52.3334C22.8889 48.111 19.1667 44.1946 14.3333 40.5834C10.1296 37.4061 5.92579 35.2394 1.72204 34.0835C0.726416 33.8099 0 32.927 0 31.8945C0 30.8821 0.698474 30.0094 1.67191 29.7315C5.79344 28.5547 9.7639 26.6442 13.5833 24C17.9722 20.9444 21.6389 17.2778 24.5833 13C27.1881 9.18928 28.9762 5.42042 29.9476 1.69346C30.2021 0.717104 31.0616 0 32.0707 0C33.0909 0 33.9565 0.732985 34.2048 1.72266C34.7654 3.95693 35.6416 6.24384 36.8333 8.58333C38.3334 11.4722 40.2499 14.25 42.5834 16.9167C44.9722 19.5278 47.639 21.8889 50.5834 24C54.431 26.7274 58.3424 28.6436 62.3181 29.7485C63.2934 30.0195 64 30.8878 64 31.9C64 32.9274 63.272 33.8029 62.2813 34.0746C59.7613 34.7654 57.1674 35.8797 54.5002 37.4166C51.2778 39.3056 48.2778 41.5555 45.4998 44.1667C42.7222 46.7222 40.4445 49.4166 38.6666 52.2499C36.4586 55.7738 34.9654 59.1184 34.1878 62.2845C33.9466 63.2666 33.0922 64 32.0813 64Z" fill="url(#paint0_linear_1_1708)"/>
</g>
</g>
<defs>
<linearGradient id="paint0_linear_1_1708" x1="8.8" y1="6.08" x2="47.68" y2="55.84" gradientUnits="userSpaceOnUse">
<stop stop-color="#FFD9A0"/>
<stop offset="1" stop-color="#FFF5F1"/>
</linearGradient>
<clipPath id="clip0_1_1708">
<rect width="64" height="64" fill="white"/>
</clipPath>
</defs>
</svg>
