<svg width="42" height="42" viewBox="0 0 42 42" fill="none" xmlns="http://www.w3.org/2000/svg">
<g clip-path="url(#clip0_1_1696)">
<mask id="mask0_1_1696" style="mask-type:luminance" maskUnits="userSpaceOnUse" x="0" y="0" width="42" height="42">
<path d="M42 0H0V42H42V0Z" fill="white"/>
</mask>
<g mask="url(#mask0_1_1696)">
<path d="M21.0533 42C20.391 42 19.8311 41.5204 19.6707 40.8778C19.1594 38.8296 18.1806 36.6515 16.7344 34.3438C15.0208 31.5729 12.5781 29.0027 9.40626 26.6328C6.64753 24.5477 3.8888 23.1258 1.13009 22.3673C0.47671 22.1878 0 21.6084 0 20.9307C0 20.2664 0.458373 19.6937 1.09719 19.5113C3.80194 18.739 6.40756 17.4852 8.91406 15.75C11.7943 13.7448 14.2005 11.3385 16.1328 8.53125C17.8422 6.03047 19.0156 3.55715 19.6531 1.11133C19.8201 0.470599 20.3842 0 21.0464 0C21.7159 0 22.2839 0.481022 22.4469 1.13049C22.8148 2.59673 23.3898 4.09752 24.1718 5.63281C25.1563 7.52865 26.414 9.35155 27.9453 11.1016C29.513 12.8151 31.2631 14.3646 33.1953 15.75C35.7204 17.5398 38.2872 18.7973 40.8962 19.5224C41.5363 19.7003 42 20.2701 42 20.9344C42 21.6086 41.5222 22.1831 40.8721 22.3614C39.2183 22.8148 37.5161 23.546 35.7657 24.5547C33.651 25.7943 31.6823 27.2708 29.8593 28.9844C28.0365 30.6615 26.5417 32.4297 25.3749 34.289C23.9259 36.6015 22.9461 38.7965 22.4358 40.8742C22.2774 41.5187 21.7167 42 21.0533 42Z" fill="url(#paint0_linear_1_1696)"/>
</g>
</g>
<defs>
<linearGradient id="paint0_linear_1_1696" x1="5.775" y1="3.99" x2="31.29" y2="36.645" gradientUnits="userSpaceOnUse">
<stop stop-color="#FFD9A0"/>
<stop offset="1" stop-color="#FFF5F1"/>
</linearGradient>
<clipPath id="clip0_1_1696">
<rect width="42" height="42" fill="white"/>
</clipPath>
</defs>
</svg>
