<svg width="66" height="66" viewBox="0 0 66 66" fill="none" xmlns="http://www.w3.org/2000/svg">
<rect x="4.35248" y="4.09253" width="57.295" height="57.295" fill="#32CAFA"/>
<rect x="6.39874" y="6.13879" width="53.2025" height="53.2025" fill="#021D25"/>
<path d="M16.63 18.8445C16.63 18.6744 16.9971 18.5438 17.2094 18.5438C18.878 18.4588 21.3262 18.4163 23.8958 18.4163C31.0827 18.4163 33.8828 22.3582 33.8828 27.4087C33.8828 34.0049 29.1047 36.8323 23.2435 36.8323C22.2606 36.8323 21.9178 36.7898 21.2322 36.7898V46.7631C21.2322 46.9787 21.1472 47.0638 20.9318 47.0638H16.9303C16.715 47.0638 16.63 46.9787 16.63 46.7631V18.8445ZM21.2322 32.6352C21.8298 32.6778 22.3031 32.6778 23.3285 32.6778C26.3652 32.6778 29.22 31.6057 29.22 27.4967C29.22 24.1986 27.1813 22.5283 23.7138 22.5283C22.6884 22.5283 21.7024 22.5708 21.2322 22.6133V32.6352ZM43.5513 29.5497C41.4975 29.5497 40.8119 30.5792 40.8119 31.4356C40.8119 32.3771 41.2821 33.0209 44.0215 34.4331C48.0867 36.4041 49.37 38.287 49.37 41.0719C49.37 45.2264 46.2028 47.0638 41.9252 47.0638C39.659 47.0638 37.7266 46.6051 36.6162 45.9612C36.4463 45.8762 36.4008 45.7486 36.4008 45.533V42.0984C36.4008 41.8402 36.5282 41.7552 36.7012 41.8827C38.3272 42.9548 40.2142 43.4255 41.9252 43.4255C43.9791 43.4255 44.8346 42.5691 44.8346 41.412C44.8346 40.4706 44.2369 39.6566 41.6249 38.287C37.945 36.5316 36.4039 34.7307 36.4039 31.7333C36.4039 28.3926 39.0129 25.8742 43.5483 25.8742C45.772 25.8742 47.3435 25.9509 48.199 26.3366C48.4144 26.4642 48.4569 26.6798 48.4569 26.8499V30.4061C48.4569 30.6187 48.3294 30.7493 48.0716 30.6643C47.2465 30.1743 45.6052 29.5497 43.5513 29.5497Z" fill="#32CAFA"/>
</svg>
