<svg width="67" height="66" viewBox="0 0 67 66" fill="none" xmlns="http://www.w3.org/2000/svg">
<rect x="4.92392" y="4.09253" width="57.295" height="57.295" fill="#FF26BE"/>
<rect x="6.97018" y="6.13879" width="53.2025" height="53.2025" fill="#2E001F"/>
<path d="M34.7432 46.668L27.7729 32.7343L34.4298 18.7854C34.5552 18.5745 34.48 18.4163 34.2793 18.4163H30.241C29.9992 18.4163 29.8961 18.5797 29.7895 18.759L25.1743 29.3064L20.4337 18.7327C20.3333 18.4954 20.233 18.4426 19.9822 18.4426H15.6679C15.5174 18.4426 15.3669 18.6008 15.5174 18.8118L22.1644 32.7343L15.2288 46.6944C15.1034 46.8526 15.1285 47.0636 15.3793 47.0636H19.518C19.7186 47.0636 19.8441 46.9845 19.9695 46.7735L24.8482 35.8457L29.7016 46.7472C29.827 47.0108 29.9524 47.0636 30.2283 47.0636H34.5927C34.7934 47.0636 34.8686 46.879 34.7432 46.668Z" fill="#FF26BE"/>
<path fill-rule="evenodd" clip-rule="evenodd" d="M46.0932 25.6405C39.9229 25.6405 36.0351 30.4396 36.0351 36.5834C36.0351 43.7556 39.8743 47.09 45.3172 47.0636C47.4242 47.0636 49.6801 46.788 51.787 45.7332C51.9375 45.6541 51.9877 45.6014 51.9877 45.4432C51.8623 44.4675 51.8623 43.571 51.8623 42.8591V18.6529C51.8623 18.5211 51.8121 18.442 51.6114 18.442H47.6484C47.523 18.442 47.3975 18.5475 47.3975 18.7057V25.6933C46.8959 25.6405 46.62 25.6405 46.0932 25.6405ZM45.9427 29.5694C46.5447 29.5694 47.0464 29.6749 47.3975 29.8331V42.8854C46.921 43.0964 46.2688 43.1755 45.6668 43.1755C42.8325 43.1755 40.575 41.2242 40.575 36.3725C40.575 32.1272 42.7823 29.5694 45.9427 29.5694Z" fill="#FF26BE"/>
</svg>
