<svg width="67" height="66" viewBox="0 0 67 66" fill="none" xmlns="http://www.w3.org/2000/svg">
<path d="M33.4286 4.09253C17.6277 4.09253 4.78113 16.9391 4.78113 32.74C4.78113 48.5409 17.6277 61.3875 33.4286 61.3875C49.2295 61.3875 62.0761 48.5409 62.0761 32.74C62.0761 16.9391 49.2295 4.09253 33.4286 4.09253Z" fill="url(#paint0_radial_1_147)"/>
<path d="M42.6784 32.6195C38.7455 32.6195 35.5579 35.8528 35.5579 39.8414C35.5579 43.8302 38.7455 47.0637 42.6784 47.0637C46.6107 47.0637 49.7986 43.8302 49.7986 39.8414C49.7986 35.8528 46.6107 32.6195 42.6784 32.6195ZM24.1789 32.62C20.2466 32.62 17.0586 35.8528 17.0586 39.8418C17.0586 43.8302 20.2466 47.0637 24.1789 47.0637C28.1115 47.0637 31.2997 43.8302 31.2997 39.8418C31.2997 35.8528 28.1115 32.62 24.1789 32.62ZM40.5488 23.5919C40.5488 27.5805 37.3611 30.8145 33.4288 30.8145C29.4961 30.8145 26.3083 27.5805 26.3083 23.5919C26.3083 19.6035 29.4961 16.37 33.4288 16.37C37.3611 16.37 40.5488 19.6035 40.5488 23.5919Z" fill="white"/>
<defs>
<radialGradient id="paint0_radial_1_147" cx="0" cy="0" r="1" gradientUnits="userSpaceOnUse" gradientTransform="translate(33.4286 35.4055) scale(37.9656)">
<stop stop-color="#FFB900"/>
<stop offset="0.6" stop-color="#F95D8F"/>
<stop offset="0.9991" stop-color="#F95353"/>
</radialGradient>
</defs>
</svg>
