<svg width="67" height="66" viewBox="0 0 67 66" fill="none" xmlns="http://www.w3.org/2000/svg">
<rect x="0.543823" width="65.4839" height="65.4839" fill="#FB7C33"/>
<rect x="2.88245" y="2.33875" width="60.8065" height="60.8065" fill="#261302"/>
<path d="M23.8609 40.1337L21.6713 48.8181C21.6261 49.0553 21.5355 49.1129 21.2606 49.1129H17.2017C16.93 49.1129 16.8848 49.018 16.93 48.6826L24.7761 19.8813C24.912 19.3561 25.0058 18.9021 25.051 17.4688C25.051 17.2791 25.1416 17.1808 25.2807 17.1808H31.0731C31.2542 17.1808 31.348 17.2282 31.3933 17.4688L40.1967 48.73C40.242 48.9672 40.1967 49.1129 39.9671 49.1129H35.4069C35.1805 49.1129 35.0414 49.0553 34.9961 48.8656L32.716 40.1337H23.8609ZM31.5679 35.4272L28.2852 21.8161L25.0478 35.4272H31.5679ZM44.0033 19.3324C44.0033 17.4688 45.2355 16.371 46.83 16.371C48.5182 16.371 49.6567 17.5671 49.6567 19.3324C49.6567 21.2435 48.4697 22.2939 46.7847 22.2939C45.1418 22.2939 44.0033 21.2435 44.0033 19.3324ZM44.3138 25.916C44.3138 25.6755 44.4044 25.5806 44.634 25.5806H48.971C49.2006 25.5806 49.2912 25.6755 49.2912 25.916V48.7775C49.2912 49.018 49.2459 49.1129 48.971 49.1129H44.6793C44.4044 49.1129 44.3138 48.9706 44.3138 48.73V25.916Z" fill="#FB7C33"/>
</svg>
