<svg width="66" height="66" viewBox="0 0 66 66" fill="none" xmlns="http://www.w3.org/2000/svg">
<path fill-rule="evenodd" clip-rule="evenodd" d="M33.1429 61.3875C48.9644 61.3875 61.7904 48.5616 61.7904 32.74C61.7904 16.9185 48.9644 4.09253 33.1429 4.09253C17.3213 4.09253 4.49536 16.9185 4.49536 32.74C4.49536 48.5616 17.3213 61.3875 33.1429 61.3875Z" fill="#1FB6FF"/>
<path fill-rule="evenodd" clip-rule="evenodd" d="M30.2877 26.4399C32.3854 26.4627 28.6923 37.3519 29.0887 42.0858C29.4886 46.8618 34.7732 45.4867 34.4378 42.7373C33.8671 38.0632 36.9807 23.4169 40.1384 23.4169C42.354 23.4169 37.6846 33.5138 38.6033 39.9794C39.2112 44.2571 44.7288 42.7732 44.1681 40.2368C42.3133 31.8427 48.0599 23.7754 47.416 18.0597C47.1343 15.5588 45.6303 14.3358 44.1259 14.3238C38.8585 14.2833 34.7897 25.0853 34.7897 25.0853C34.7897 25.0853 35.2134 18.9458 31.1197 18.7204C24.8519 18.375 18.647 34.0614 18.8227 48.0678C18.8788 52.5362 24.4401 51.7752 24.1476 48.2126C23.6038 41.5872 27.2977 26.4079 30.2877 26.4399Z" fill="white"/>
</svg>
