<svg width="67" height="66" viewBox="0 0 67 66" fill="none" xmlns="http://www.w3.org/2000/svg">
<path fill-rule="evenodd" clip-rule="evenodd" d="M12.6706 59.7869L5.63282 51.0195C3.93954 48.91 3.02051 46.3161 3.02051 43.6463V11.8989C3.02051 7.89985 6.22 4.58151 10.3475 4.2997L42.9881 2.07119C45.3595 1.90929 47.7164 2.5396 49.6643 3.85659L61.1325 11.6103C63.1853 12.9982 64.408 15.2671 64.408 17.6883V53.782C64.408 57.6956 61.262 60.9359 57.2208 61.1847L20.9934 63.4147C17.7685 63.6132 14.6514 62.2545 12.6706 59.7869Z" fill="white"/>
<path d="M23.9908 27.7854V27.3698C23.9908 26.3162 24.8346 25.4424 25.9222 25.3697L33.8439 24.8409L44.799 40.9731V26.8143L41.9792 26.4384V26.241C41.9792 25.175 42.8423 24.2955 43.9437 24.239L51.1517 23.8698V24.9071C51.1517 25.394 50.7896 25.8105 50.2933 25.8945L48.5587 26.1878V49.1175L46.3818 49.8661C44.5632 50.4916 42.5386 49.8221 41.4975 48.2511L30.862 32.2022V47.52L34.1356 48.1465L34.09 48.4501C33.9471 49.4012 33.126 50.1205 32.1326 50.1648L23.9908 50.5271C23.8831 49.5044 24.6497 48.5893 25.7072 48.4782L26.7782 48.3657V27.942L23.9908 27.7854Z" fill="black"/>
<path fill-rule="evenodd" clip-rule="evenodd" d="M43.2804 6.07074L10.6398 8.29925C8.68461 8.43274 7.16907 10.0046 7.16907 11.8989V43.6462C7.16907 45.4261 7.78176 47.1554 8.91061 48.5617L15.9484 57.3291C17.0863 58.7467 18.877 59.5272 20.7296 59.4132L56.957 57.1832C58.8138 57.0689 60.2592 55.5801 60.2592 53.7819V17.6883C60.2592 16.5758 59.6974 15.5333 58.7542 14.8957L47.286 7.14198C46.1173 6.35179 44.7031 5.9736 43.2804 6.07074ZM12.2583 12.3941C11.8044 12.058 12.0204 11.3578 12.5907 11.3169L43.4999 9.09986C44.4847 9.02923 45.4633 9.30042 46.2598 9.86469L52.4615 14.2585C52.6969 14.4253 52.5865 14.7854 52.295 14.8013L19.5622 16.5815C18.5716 16.6353 17.5939 16.3443 16.8062 15.7612L12.2583 12.3941ZM18.0269 22.1623C18.0269 21.0989 18.886 20.2205 19.9846 20.1607L54.5924 18.276C55.663 18.2176 56.5643 19.041 56.5643 20.0774V51.3307C56.5643 52.3921 55.7082 53.2696 54.6119 53.332L20.2232 55.2887C19.0317 55.3565 18.0269 54.4409 18.0269 53.2874V22.1623Z" fill="black"/>
</svg>
